<svg version="1.2" baseProfile="tiny" xmlns="http://www.w3.org/2000/svg" viewBox="0 0 256 173" xml:space="preserve"><path d="M128.3 56.9c15.2 0 27.4-12.2 27.4-27.4S143.5 2 128.3 2s-27.4 12.2-27.4 27.4c0 15.3 12.3 27.5 27.4 27.5m-63.7 79.4H15.3c-16 0-16.9-24.4.3-24.4h42.7l24.5-36.1C90 66 98.3 61.3 109.9 61.3h36.5c11.7 0 19.9 4.3 27.1 14.6l24.6 36.1h43c17.2 0 16.2 24.4.6 24.4h-49.3c-3.9 0-8.6-1.4-11.4-5.6L162.2 104l-.1 67.2H94.8l-.1-67.2-18.8 26.8c-2.7 4.1-7.4 5.5-11.3 5.5"/><path d="M225 99.5c16 0 29-13 29-29s-13-29-29-29-29 13.1-29 29.1 13 28.9 29 28.9M223.4 73c-5.3-1.9-8.6-4.6-8.6-9.3 0-4.4 2.9-7.9 8.3-9v-4.8h4v4.6c3.3 0 5.7.7 7.5 1.6l-1.6 5.7c-1.3-.5-3.5-1.5-6.4-1.5s-4.6 1.5-4.6 2.9c0 2 1.9 2.8 5.9 4.4 5.5 2 8 4.8 8 9.3s-2.8 8-8.6 9.3v4.6h-4v-4.4c-3.5 0-7-.9-8.6-1.9l1.5-5.9c1.9.9 4.8 2 7.9 2 3.3 0 5-1.5 5-3.5s-1.9-2.6-5.7-4.1M31.5 41C15.2 41 2 54.2 2 70.5S15.2 100 31.5 100 61 86.8 61 70.5 47.8 41 31.5 41m0 53.2c-13.1 0-23.7-10.6-23.7-23.7s10.6-23.7 23.7-23.7 23.7 10.6 23.7 23.7c-.1 13-10.7 23.7-23.7 23.7m14.7-29.5c-.5-.9-1.7-1.5-3-.9l-10.5 4.7V56.2c0-.7-.2-1.3-.7-1.7-.4-.4-.9-.5-1.5-.5-1.1 0-2.3.9-2.3 2.3v16.2c0 .9.5 1.7 1.3 2.1.4.2.8.3 1.1.3.4 0 .8-.1 1.1-.3L45.3 68c.6-.3 1-.8 1.2-1.4.1-.6 0-1.3-.3-1.9"/><g/><g/><g/></svg>