<svg width="20" height="20" viewBox="0 0 24 24" xmlns="http://www.w3.org/2000/svg" fill="none">
  <path stroke="#000" stroke-linecap="round" stroke-linejoin="round" stroke-width="2" d="M14 21h-4l-.551-2.48a7 7 0 0 1-1.819-1.05l-2.424.763-2-3.464 1.872-1.718a7 7 0 0 1 0-2.1L3.206 9.232l2-3.464 2.424.763A7 7 0 0 1 9.45 5.48L10 3h4l.551 2.48a7 7 0 0 1 1.819 1.05l2.424-.763 2 3.464-1.872 1.718a7 7 0 0 1 0 2.1l1.872 1.718-2 3.464-2.424-.763a7 7 0 0 1-1.819 1.052z"/>
  <circle cx="12" cy="12" r="3" stroke="#000" stroke-width="2"/>
</svg>
